<svg xmlns="http://www.w3.org/2000/svg" xmlns:xlink="http://www.w3.org/1999/xlink" xmlns:lucid="lucid" width="922.98" height="306.6"><g transform="translate(-77.025 -200)" lucid:page-tab-id="wGHeVJtQPwIP"><path d="M670 240h100v53.2H670z" stroke="#000" stroke-width="2" fill="#fff"/><use xlink:href="#a" transform="translate(689.025 270.6)"/><path d="M820 340h160v53.2H820z" stroke="#000" stroke-width="2" fill="#fff"/><use xlink:href="#b" transform="translate(873.025 370.6)"/><path d="M950 480.6c0 3.3-22.4 6-50 6s-50-2.7-50-6v-48c0-3.3 22.4-6 50-6s50 2.7 50 6z" stroke="#000" stroke-width="2" fill="#fff"/><path d="M950 432.6c0 3.3-22.4 6-50 6s-50-2.7-50-6" stroke="#000" stroke-width="2" fill="none"/><use xlink:href="#c" transform="translate(861.525 466.2)"/><path d="M772 266.6h48.5" stroke="#000" stroke-width="2" fill="none"/><path d="M772.03 267.6H771v-2h1.03z"/><path d="M835.77 266.6l-14.27 4.64v-9.28z" stroke="#000" stroke-width="2"/><path d="M900 308.6v11.9" stroke="#000" stroke-width="2" fill="none"/><path d="M900 307.6l1-.03v1.06h-2v-1.07z"/><path d="M900 335.76l-4.64-14.26h9.28z" stroke="#000" stroke-width="2"/><path d="M485 240h120v53.2H485z" stroke="#000" stroke-width="2" fill="#fff"/><use xlink:href="#d" transform="translate(524.025 270.6)"/><path d="M127.25 233.85c0 4-3.25 7.25-7.25 7.25s-7.25-3.25-7.25-7.25 3.25-7.25 7.25-7.25 7.25 3.25 7.25 7.25z" stroke="#000" stroke-width="2" fill="#fff"/><path d="M100 226.6h40v58h-40z" fill="none"/><path d="M120 241.1v20.3l20 23.2m-20-23.2l-20 23.2m0-36.25h40" stroke="#000" stroke-width="2" fill="none"/><use xlink:href="#e" transform="translate(99.025 299.2)"/><path d="M607 266.6h43.5" stroke="#000" stroke-width="2" fill="none"/><path d="M607.03 267.6H606v-2h1.03z"/><path d="M665.76 266.6l-14.26 4.64v-9.28z" stroke="#000" stroke-width="2"/><path d="M126.8 266.6h113.7m-113.67 0h-4.03" stroke="#000" stroke-width="2" fill="none"/><path d="M255.76 266.6l-14.26 4.64v-9.28z" stroke="#000" stroke-width="2"/><path d="M260 380h160v60H260z" stroke="#000" stroke-width="2" fill="#fff"/><use xlink:href="#f" transform="translate(265.625 414.1)"/><use xlink:href="#g" transform="translate(347.525 414.1)"/><path d="M960 297.94c0 4.78-26.86 8.66-60 8.66s-60-3.88-60-8.66v-69.28c0-4.78 26.86-8.66 60-8.66s60 3.88 60 8.66z" stroke="#000" stroke-width="2" fill="#fff"/><path d="M960 228.66c0 4.78-26.86 8.66-60 8.66s-60-3.88-60-8.66" stroke="#000" stroke-width="2" fill="none"/><use xlink:href="#h" transform="translate(847.525 265.12)"/><use xlink:href="#i" transform="translate(895.475 265.12)"/><use xlink:href="#j" transform="translate(856.55 286.72)"/><path d="M900 395.2v11.9" stroke="#000" stroke-width="2" fill="none"/><path d="M901 395.23h-2v-1.03h2z"/><path d="M900 422.36l-4.64-14.26h9.28z" stroke="#000" stroke-width="2"/><path d="M260 240h160v53.2H260z" stroke="#000" stroke-width="2" fill="#fff"/><use xlink:href="#k" transform="translate(296.075 270.6)"/><path d="M422 266.6h43.5" stroke="#000" stroke-width="2" fill="none"/><path d="M422.03 267.6H421v-2h1.03z"/><path d="M480.76 266.6l-14.26 4.64v-9.28z" stroke="#000" stroke-width="2"/><path d="M313.5 295.2v41.4h-.22v23.9" stroke="#000" stroke-width="2" fill="none"/><path d="M314.5 295.23h-2v-1.03h2z"/><path d="M313.28 375.76l-4.63-14.26h9.27z" stroke="#000" stroke-width="2"/><path d="M360.67 378v-41.4h-.17v-23.9" stroke="#000" stroke-width="2" fill="none"/><path d="M361.67 379h-2v-1.03h2z"/><path d="M360.5 297.44l4.64 14.26h-9.28z" stroke="#000" stroke-width="2"/><path d="M422 284h28v172.6h398" fill="none"/><path d="M422 284h9.98m9.97 0H450v11.9m0 9.98v19.96m0 9.97v19.97m0 9.97v19.96m0 9.97v19.96m0 9.97v19.96m0 9.97v1.07h18.9m9.96 0h19.96m9.97 0h19.95m9.97 0h19.96m9.97 0h19.96m9.98 0h19.96m9.97 0h19.97m9.97 0h19.96m9.97 0h19.96m9.97 0h19.96m9.97 0h19.96m9.96 0h19.96m9.97 0h19.95m9.97 0H848" stroke="#000" stroke-width="2" fill="none"/><path d="M422.03 285H421v-2h1.03zM849 457.6h-1.03v-2H849z"/><path d="M182.52 267.6V410H258" fill="none"/><path d="M182.52 267.6v10.38m0 10.37v20.75m0 10.38v20.75m0 10.37v20.75m0 10.38v20.75m2.85 7.52h20.75m10.38 0h20.75m10.37 0H258m-75.48-142.37v-1.03" stroke="#000" stroke-width="2" fill="none"/><path d="M259 411h-1.03v-2H259z"/><defs><path d="M190 0L58-211 59 0H30v-248h39L202-35l-2-213h31V0h-41" id="l"/><path d="M100-194c62-1 85 37 85 99 1 63-27 99-86 99S16-35 15-95c0-66 28-99 85-99zM99-20c44 1 53-31 53-75 0-43-8-75-51-75s-53 32-53 75 10 74 51 75" id="m"/><path d="M85-194c31 0 48 13 60 33l-1-100h32l1 261h-30c-2-10 0-23-3-31C134-8 116 4 85 4 32 4 16-35 15-94c0-66 23-100 70-100zm9 24c-40 0-46 34-46 75 0 40 6 74 45 74 42 0 51-32 51-76 0-42-9-74-50-73" id="n"/><path d="M100-194c63 0 86 42 84 106H49c0 40 14 67 53 68 26 1 43-12 49-29l28 8c-11 28-37 45-77 45C44 4 14-33 15-96c1-61 26-98 85-98zm52 81c6-60-76-77-97-28-3 7-6 17-6 28h103" id="o"/><path d="M135-143c-3-34-86-38-87 0 15 53 115 12 119 90S17 21 10-45l28-5c4 36 97 45 98 0-10-56-113-15-118-90-4-57 82-63 122-42 12 7 21 19 24 35" id="p"/><g id="a"><use transform="scale(.05)" xlink:href="#l"/><use transform="translate(12.95) scale(.05)" xlink:href="#m"/><use transform="translate(22.95) scale(.05)" xlink:href="#n"/><use transform="translate(32.95) scale(.05)" xlink:href="#o"/><use transform="translate(42.95) scale(.05)" xlink:href="#m"/><use transform="translate(52.95) scale(.05)" xlink:href="#p"/></g><path d="M210-169c-67 3-38 105-44 169h-31v-121c0-29-5-50-35-48C34-165 62-65 56 0H25l-1-190h30c1 10-1 24 2 32 10-44 99-50 107 0 11-21 27-35 58-36 85-2 47 119 55 194h-31v-121c0-29-5-49-35-48" id="q"/><path d="M84 4C-5 8 30-112 23-190h32v120c0 31 7 50 39 49 72-2 45-101 50-169h31l1 190h-30c-1-10 1-25-2-33-11 22-28 36-60 37" id="r"/><path d="M141 0L90-78 38 0H4l68-98-65-92h35l48 74 47-74h35l-64 92 68 98h-35" id="s"/><g id="b"><use transform="scale(.05)" xlink:href="#n"/><use transform="translate(10) scale(.05)" xlink:href="#o"/><use transform="translate(20) scale(.05)" xlink:href="#q"/><use transform="translate(34.95) scale(.05)" xlink:href="#r"/><use transform="translate(44.95) scale(.05)" xlink:href="#s"/></g><path d="M30-248c118-7 216 8 213 122C240-48 200 0 122 0H30v-248zM63-27c89 8 146-16 146-99s-60-101-146-95v194" id="t"/><path d="M141-36C126-15 110 5 73 4 37 3 15-17 15-53c-1-64 63-63 125-63 3-35-9-54-41-54-24 1-41 7-42 31l-33-3c5-37 33-52 76-52 45 0 72 20 72 64v82c-1 20 7 32 28 27v20c-31 9-61-2-59-35zM48-53c0 20 12 33 32 33 41-3 63-29 60-74-43 2-92-5-92 41" id="u"/><path d="M59-47c-2 24 18 29 38 22v24C64 9 27 4 27-40v-127H5v-23h24l9-43h21v43h35v23H59v120" id="v"/><path d="M115-194c53 0 69 39 70 98 0 66-23 100-70 100C84 3 66-7 56-30L54 0H23l1-261h32v101c10-23 28-34 59-34zm-8 174c40 0 45-34 45-75 0-40-5-75-45-74-42 0-51 32-51 76 0 43 10 73 51 73" id="w"/><g id="c"><use transform="scale(.05)" xlink:href="#t"/><use transform="translate(12.95) scale(.05)" xlink:href="#u"/><use transform="translate(22.95) scale(.05)" xlink:href="#v"/><use transform="translate(27.95) scale(.05)" xlink:href="#u"/><use transform="translate(37.95) scale(.05)" xlink:href="#w"/><use transform="translate(47.95) scale(.05)" xlink:href="#u"/><use transform="translate(57.95) scale(.05)" xlink:href="#p"/><use transform="translate(66.95) scale(.05)" xlink:href="#o"/></g><path d="M24-231v-30h32v30H24zM-9 49c24 4 33-6 33-30v-209h32V24c2 40-23 58-65 49V49" id="x"/><g id="d"><use transform="scale(.05)" xlink:href="#o"/><use transform="translate(10) scale(.05)" xlink:href="#m"/><use transform="translate(20) scale(.05)" xlink:href="#p"/><use transform="translate(29) scale(.05)" xlink:href="#x"/><use transform="translate(32.95) scale(.05)" xlink:href="#p"/></g><path d="M205 0l-28-72H64L36 0H1l101-248h38L239 0h-34zm-38-99l-47-123c-12 45-31 82-46 123h93" id="y"/><path d="M96-169c-40 0-48 33-48 73s9 75 48 75c24 0 41-14 43-38l32 2c-6 37-31 61-74 61-59 0-76-41-82-99-10-93 101-131 147-64 4 7 5 14 7 22l-32 3c-4-21-16-35-41-35" id="z"/><path d="M114-163C36-179 61-72 57 0H25l-1-190h30c1 12-1 29 2 39 6-27 23-49 58-41v29" id="A"/><g id="e"><use transform="scale(.05)" xlink:href="#y"/><use transform="translate(12) scale(.05)" xlink:href="#z"/><use transform="translate(21) scale(.05)" xlink:href="#v"/><use transform="translate(26) scale(.05)" xlink:href="#m"/><use transform="translate(36) scale(.05)" xlink:href="#A"/></g><path d="M185-189c-5-48-123-54-124 2 14 75 158 14 163 119 3 78-121 87-175 55-17-10-28-26-33-46l33-7c5 56 141 63 141-1 0-78-155-14-162-118-5-82 145-84 179-34 5 7 8 16 11 25" id="B"/><path d="M24-231v-30h32v30H24zM24 0v-190h32V0H24" id="C"/><path d="M177-190C167-65 218 103 67 71c-23-6-38-20-44-43l32-5c15 47 100 32 89-28v-30C133-14 115 1 83 1 29 1 15-40 15-95c0-56 16-97 71-98 29-1 48 16 59 35 1-10 0-23 2-32h30zM94-22c36 0 50-32 50-73 0-42-14-75-50-75-39 0-46 34-46 75s6 73 46 73" id="D"/><path d="M117-194c89-4 53 116 60 194h-32v-121c0-31-8-49-39-48C34-167 62-67 57 0H25l-1-190h30c1 10-1 24 2 32 11-22 29-35 61-36" id="E"/><g id="f"><use transform="scale(.05)" xlink:href="#B"/><use transform="translate(12) scale(.05)" xlink:href="#C"/><use transform="translate(15.95) scale(.05)" xlink:href="#D"/><use transform="translate(25.95) scale(.05)" xlink:href="#E"/><use transform="translate(35.95) scale(.05)" xlink:href="#u"/><use transform="translate(45.95) scale(.05)" xlink:href="#v"/><use transform="translate(50.95) scale(.05)" xlink:href="#r"/><use transform="translate(60.95) scale(.05)" xlink:href="#A"/><use transform="translate(66.9) scale(.05)" xlink:href="#o"/></g><path d="M30-248c87 1 191-15 191 75 0 78-77 80-158 76V0H30v-248zm33 125c57 0 124 11 124-50 0-59-68-47-124-48v98" id="F"/><path d="M108 0H70L1-190h34L89-25l56-165h34" id="G"/><g id="g"><use transform="scale(.05)" xlink:href="#F"/><use transform="translate(12) scale(.05)" xlink:href="#A"/><use transform="translate(17.95) scale(.05)" xlink:href="#m"/><use transform="translate(27.95) scale(.05)" xlink:href="#G"/><use transform="translate(36.95) scale(.05)" xlink:href="#C"/><use transform="translate(40.9) scale(.05)" xlink:href="#n"/><use transform="translate(50.9) scale(.05)" xlink:href="#o"/><use transform="translate(60.9) scale(.05)" xlink:href="#A"/></g><path d="M30 0v-248h33v221h125V0H30" id="H"/><path d="M24 0v-261h32V0H24" id="I"/><g id="h"><use transform="scale(.05)" xlink:href="#H"/><use transform="translate(10) scale(.05)" xlink:href="#m"/><use transform="translate(20) scale(.05)" xlink:href="#z"/><use transform="translate(29) scale(.05)" xlink:href="#u"/><use transform="translate(39) scale(.05)" xlink:href="#I"/></g><path d="M30 0v-248h187v28H63v79h144v27H63v87h162V0H30" id="J"/><path d="M140-251c81 0 123 46 123 126C263-46 219 4 140 4 59 4 17-45 17-125s42-126 123-126zm0 227c63 0 89-41 89-101s-29-99-89-99c-61 0-89 39-89 99S79-25 140-24" id="K"/><path d="M33 0v-248h34V0H33" id="L"/><g id="i"><use transform="scale(.05)" xlink:href="#J"/><use transform="translate(12) scale(.05)" xlink:href="#K"/><use transform="translate(26) scale(.05)" xlink:href="#B"/><use transform="translate(38) scale(.05)" xlink:href="#L"/><use transform="translate(43) scale(.05)" xlink:href="#K"/></g><path d="M160-131c35 5 61 23 61 61C221 17 115-2 30 0v-248c76 3 177-17 177 60 0 33-19 50-47 57zm-97-11c50-1 110 9 110-42 0-47-63-36-110-37v79zm0 115c55-2 124 14 124-45 0-56-70-42-124-44v89" id="M"/><path d="M143 0L79-87 56-68V0H24v-261h32v163l83-92h37l-77 82L181 0h-38" id="N"/><path d="M106-169C34-169 62-67 57 0H25v-261h32l-1 103c12-21 28-36 61-36 89 0 53 116 60 194h-32v-121c2-32-8-49-39-48" id="O"/><g id="j"><use transform="scale(.05)" xlink:href="#M"/><use transform="translate(12) scale(.05)" xlink:href="#I"/><use transform="translate(15.95) scale(.05)" xlink:href="#m"/><use transform="translate(25.95) scale(.05)" xlink:href="#z"/><use transform="translate(34.95) scale(.05)" xlink:href="#N"/><use transform="translate(43.95) scale(.05)" xlink:href="#z"/><use transform="translate(52.95) scale(.05)" xlink:href="#O"/><use transform="translate(62.95) scale(.05)" xlink:href="#u"/><use transform="translate(72.95) scale(.05)" xlink:href="#C"/><use transform="translate(76.9) scale(.05)" xlink:href="#E"/></g><path d="M115-194c55 1 70 41 70 98S169 2 115 4C84 4 66-9 55-30l1 105H24l-1-265h31l2 30c10-21 28-34 59-34zm-8 174c40 0 45-34 45-75s-6-73-45-74c-42 0-51 32-51 76 0 43 10 73 51 73" id="P"/><g id="k"><use transform="scale(.05)" xlink:href="#y"/><use transform="translate(12) scale(.05)" xlink:href="#P"/><use transform="translate(22) scale(.05)" xlink:href="#P"/><use transform="translate(32) scale(.05)" xlink:href="#I"/><use transform="translate(35.95) scale(.05)" xlink:href="#C"/><use transform="translate(39.9) scale(.05)" xlink:href="#z"/><use transform="translate(48.9) scale(.05)" xlink:href="#u"/><use transform="translate(58.9) scale(.05)" xlink:href="#v"/><use transform="translate(63.9) scale(.05)" xlink:href="#C"/><use transform="translate(67.85) scale(.05)" xlink:href="#m"/><use transform="translate(77.85) scale(.05)" xlink:href="#E"/></g></defs></g></svg>